<svg xmlns="http://www.w3.org/2000/svg" xmlns:xlink="http://www.w3.org/1999/xlink" width="500" zoomAndPan="magnify" viewBox="0 0 375 374.999991" height="500" preserveAspectRatio="xMidYMid meet" version="1.0"><path fill="#f8f8f8" d="M 187.453125 -0.03125 C 83.90625 -0.03125 -0.03125 83.90625 -0.03125 187.453125 C -0.03125 291.003906 83.90625 374.941406 187.453125 374.941406 C 291.003906 374.941406 374.941406 291.003906 374.941406 187.453125 C 374.941406 83.90625 291.003906 -0.03125 187.453125 -0.03125 Z M 187.453125 337.441406 C 104.625 337.441406 37.46875 270.285156 37.46875 187.453125 C 37.46875 104.625 104.625 37.46875 187.453125 37.46875 C 270.285156 37.46875 337.441406 104.625 337.441406 187.453125 C 337.441406 270.285156 270.285156 337.441406 187.453125 337.441406 Z M 280.015625 231.53125 C 277.183594 239.050781 270.023438 243.699219 262.449219 243.699219 C 260.253906 243.699219 258.042969 243.308594 255.847656 242.5 L 205.191406 223.507812 C 183.367188 215.316406 168.707031 194.148438 168.707031 170.84375 L 168.707031 93.710938 C 168.707031 83.363281 177.085938 74.964844 187.453125 74.964844 C 197.824219 74.964844 206.203125 83.363281 206.203125 93.710938 L 206.203125 170.84375 C 206.203125 178.625 211.097656 185.675781 218.371094 188.410156 L 269.03125 207.402344 C 278.722656 211.023438 283.636719 221.839844 280.015625 231.53125 Z M 280.015625 231.53125 " fill-opacity="1" fill-rule="nonzero"/></svg>