<svg xmlns="http://www.w3.org/2000/svg" xmlns:xlink="http://www.w3.org/1999/xlink" width="500" zoomAndPan="magnify" viewBox="0 0 375 374.999991" height="500" preserveAspectRatio="xMidYMid meet" version="1.0"><defs><clipPath id="72dc6b5d5c"><path d="M 0 38 L 375 38 L 375 337.21875 L 0 337.21875 Z M 0 38 " clip-rule="nonzero"/></clipPath></defs><g clip-path="url(#72dc6b5d5c)"><path fill="#f8f8f8" d="M 85.230469 191.898438 L 0.230469 245.445312 L 0.230469 128.242188 Z M 374.679688 61.402344 L 374.679688 69.828125 L 187.453125 210.058594 L 0.230469 69.828125 L 0.230469 61.402344 C 0.230469 48.484375 10.714844 38 23.632812 38 L 351.277344 38 C 364.195312 38 374.679688 48.484375 374.679688 61.402344 Z M 289.679688 191.898438 L 374.679688 128.242188 L 374.679688 245.445312 Z M 249.613281 221.855469 L 374.679688 301.050781 L 374.679688 314.15625 C 374.679688 327.074219 364.195312 337.558594 351.277344 337.558594 L 23.632812 337.558594 C 10.714844 337.558594 0.230469 327.074219 0.230469 314.15625 L 0.230469 301.050781 L 125.296875 221.855469 L 173.414062 257.988281 C 177.53125 261.171875 182.585938 262.667969 187.453125 262.667969 C 192.324219 262.667969 197.378906 261.171875 201.496094 257.988281 Z M 249.613281 221.855469 " fill-opacity="1" fill-rule="nonzero"/></g></svg>