<svg xmlns="http://www.w3.org/2000/svg" xmlns:xlink="http://www.w3.org/1999/xlink" width="500" zoomAndPan="magnify" viewBox="0 0 375 374.999991" height="500" preserveAspectRatio="xMidYMid meet" version="1.0"><defs><clipPath id="2a7da7e97b"><path d="M 7.507812 8.160156 L 367.507812 8.160156 L 367.507812 366.660156 L 7.507812 366.660156 Z M 7.507812 8.160156 " clip-rule="nonzero"/></clipPath></defs><g clip-path="url(#2a7da7e97b)"><path fill="#f8f8f8" d="M 367.527344 188.179688 C 367.527344 88.75 286.9375 8.160156 187.527344 8.160156 C 88.117188 8.160156 7.511719 88.75 7.511719 188.179688 C 7.511719 272.597656 65.625 343.441406 144.035156 362.894531 L 144.035156 243.191406 L 106.90625 243.191406 L 106.90625 188.179688 L 144.035156 188.179688 L 144.035156 164.476562 C 144.035156 103.210938 171.757812 74.808594 231.910156 74.808594 C 243.316406 74.808594 262.996094 77.039062 271.042969 79.28125 L 271.042969 129.140625 C 266.792969 128.691406 259.410156 128.464844 250.246094 128.464844 C 220.730469 128.464844 209.324219 139.644531 209.324219 168.710938 L 209.324219 188.160156 L 268.117188 188.160156 L 258.019531 243.175781 L 209.324219 243.175781 L 209.324219 366.855469 C 298.457031 356.09375 367.527344 280.191406 367.527344 188.160156 Z M 367.527344 188.179688 " fill-opacity="1" fill-rule="nonzero"/></g></svg>