<svg xmlns="http://www.w3.org/2000/svg" xmlns:xlink="http://www.w3.org/1999/xlink" width="500" zoomAndPan="magnify" viewBox="0 0 375 374.999991" height="500" preserveAspectRatio="xMidYMid meet" version="1.0"><defs><clipPath id="1589343729"><path d="M 24.066406 24.066406 L 347.316406 24.066406 L 347.316406 347.316406 L 24.066406 347.316406 Z M 24.066406 24.066406 " clip-rule="nonzero"/></clipPath></defs><g clip-path="url(#1589343729)"><path fill="#f8f8f8" d="M 118.734375 25.179688 C 101.539062 25.984375 89.796875 28.742188 79.53125 32.761719 C 68.902344 36.90625 59.902344 42.449219 50.945312 51.449219 C 41.976562 60.449219 36.464844 69.464844 32.367188 80.113281 C 28.390625 90.40625 25.695312 102.148438 24.933594 119.359375 C 24.171875 136.582031 24.007812 142.078125 24.082031 185.972656 C 24.160156 229.847656 24.355469 235.359375 25.179688 252.601562 C 26 269.792969 28.742188 281.519531 32.761719 291.800781 C 36.90625 302.429688 42.449219 311.414062 51.449219 320.386719 C 60.449219 329.355469 69.464844 334.855469 80.113281 338.964844 C 90.390625 342.941406 102.148438 345.652344 119.34375 346.398438 C 136.582031 347.160156 142.078125 347.328125 185.957031 347.234375 C 229.847656 347.160156 235.34375 346.960938 252.585938 346.136719 C 269.777344 345.316406 281.503906 342.558594 291.785156 338.554688 C 302.414062 334.398438 311.414062 328.867188 320.371094 319.867188 C 329.324219 310.867188 334.839844 301.851562 338.949219 291.207031 C 342.925781 280.925781 345.636719 269.167969 346.382812 251.992188 C 347.128906 234.75 347.3125 229.238281 347.234375 185.363281 C 347.160156 141.484375 346.945312 135.988281 346.136719 118.75 C 345.316406 101.539062 342.574219 89.8125 338.554688 79.53125 C 334.398438 68.902344 328.867188 59.917969 319.867188 50.945312 C 310.867188 41.992188 301.851562 36.464844 291.207031 32.367188 C 280.925781 28.390625 269.167969 25.679688 251.976562 24.933594 C 234.734375 24.171875 229.222656 24.007812 185.347656 24.082031 C 141.46875 24.160156 135.972656 24.355469 118.734375 25.179688 M 120.621094 317.292969 C 104.875 316.609375 96.316406 313.988281 90.605469 311.796875 C 83.050781 308.871094 77.675781 305.371094 71.992188 299.75 C 66.328125 294.101562 62.824219 288.722656 59.871094 281.199219 C 57.664062 275.503906 55 266.960938 54.25 251.199219 C 53.445312 234.171875 53.261719 229.054688 53.1875 185.910156 C 53.109375 142.78125 53.261719 137.664062 54.007812 120.621094 C 54.679688 104.875 57.3125 96.316406 59.507812 90.621094 C 62.429688 83.066406 65.917969 77.691406 71.550781 72.007812 C 77.203125 66.34375 82.578125 62.839844 90.117188 59.886719 C 95.8125 57.664062 104.355469 55.011719 120.105469 54.265625 C 137.144531 53.460938 142.246094 53.292969 185.390625 53.199219 C 228.539062 53.109375 233.652344 53.261719 250.695312 54.023438 C 266.441406 54.707031 275.003906 57.3125 280.699219 59.519531 C 288.25 62.445312 293.644531 65.917969 299.308594 71.566406 C 304.972656 77.21875 308.492188 82.578125 311.429688 90.132812 C 313.65625 95.8125 316.304688 104.371094 317.050781 120.105469 C 317.859375 137.144531 318.039062 142.261719 318.117188 185.390625 C 318.191406 228.539062 318.039062 233.652344 317.292969 250.679688 C 316.609375 266.429688 313.988281 275.003906 311.796875 280.699219 C 308.871094 288.238281 305.386719 293.628906 299.734375 299.292969 C 294.085938 304.941406 288.722656 308.460938 281.171875 311.414062 C 275.488281 313.640625 266.929688 316.289062 251.199219 317.035156 C 234.15625 317.84375 229.054688 318.023438 185.894531 318.101562 C 142.765625 318.175781 137.648438 318.023438 120.605469 317.277344 M 252.355469 99.285156 C 252.371094 109.992188 261.082031 118.65625 271.773438 118.625 C 282.480469 118.609375 291.144531 109.914062 291.128906 99.210938 C 291.113281 88.503906 282.402344 79.835938 271.699219 79.851562 C 260.992188 79.867188 252.324219 88.578125 252.339844 99.269531 M 102.679688 185.820312 C 102.773438 231.644531 139.992188 268.710938 185.804688 268.621094 C 231.628906 268.53125 268.710938 231.324219 268.621094 185.5 C 268.53125 139.6875 231.308594 102.605469 185.484375 102.679688 C 139.671875 102.773438 102.589844 139.992188 102.679688 185.820312 M 131.785156 185.757812 C 131.738281 156.015625 155.800781 131.84375 185.542969 131.800781 C 215.289062 131.738281 239.457031 155.800781 239.515625 185.558594 C 239.578125 215.304688 215.5 239.472656 185.757812 239.515625 C 156.015625 239.578125 131.84375 215.5 131.800781 185.757812 " fill-opacity="1" fill-rule="nonzero"/></g></svg>