<svg xmlns="http://www.w3.org/2000/svg" xmlns:xlink="http://www.w3.org/1999/xlink" width="500" zoomAndPan="magnify" viewBox="0 0 375 374.999991" height="500" preserveAspectRatio="xMidYMid meet" version="1.0"><path fill="#f8f8f8" d="M 107.90625 267.003906 C 167.28125 326.382812 232.882812 356.640625 279.453125 371.789062 C 313.238281 382.777344 349.515625 364.027344 361.066406 330.429688 L 373.757812 293.441406 C 377.453125 282.679688 372.222656 270.90625 361.777344 266.421875 L 293.234375 237.042969 C 283.578125 232.902344 272.367188 235.058594 264.941406 242.5 L 228.964844 278.480469 C 228.964844 278.480469 193.25 264.023438 152.078125 222.851562 C 110.90625 181.679688 96.449219 145.945312 96.449219 145.945312 L 132.429688 109.96875 C 139.832031 102.542969 141.988281 91.351562 137.863281 81.695312 L 108.484375 13.132812 C 104.003906 2.6875 92.210938 -2.542969 81.46875 1.152344 L 44.480469 13.84375 C 10.863281 25.394531 -7.886719 61.652344 3.121094 95.457031 C 18.269531 142.027344 48.527344 207.609375 107.90625 267.003906 Z M 107.90625 267.003906 " fill-opacity="1" fill-rule="nonzero"/></svg>